<?xml version="1.0" standalone="no"?>
<!DOCTYPE svg PUBLIC "-//W3C//DTD SVG 1.1//EN" "http://www.w3.org/Graphics/SVG/1.1/DTD/svg11.dtd" >
<svg xmlns="http://www.w3.org/2000/svg">
<metadata>
This is a custom SVG font generated by IcoMoon.

</metadata>
<defs>
<font id="IcoMoon" horiz-adv-x="509.44" >
<font-face units-per-em="512" ascent="510" descent="-2" />
<missing-glyph horiz-adv-x="509.44" />
<glyph unicode="&#x0021;" d="M 390.478,141.954C 327.682,164.839, 307.614,184.142, 307.614,225.478c0.00,24.812, 19.172,16.705, 27.589,62.148
		c 3.494,18.845, 20.43,0.303, 23.674,43.338c0.00,17.15-9.245,21.412-9.245,21.412s 4.696,25.376, 6.539,44.91
		c 2.277,24.338-14.062,87.21-101.211,87.21c-87.154,0.00-103.50-62.872-101.211-87.21
		c 1.838-19.534, 6.535-44.91, 6.535-44.91s-9.241-4.263-9.241-21.412c 3.232-43.036, 20.167-24.493, 23.661-43.338
		c 8.426-45.444, 27.589-37.337, 27.589-62.148c0.00-41.337-20.06-60.64-82.852-83.525
		C 56.444,118.99, 15.523,95.586, 15.523,79.626c0.00-15.948,0.00-53.627,0.00-53.627l 239.437,0.00 l 239.437,0.00 c0.00,0.00,0.00,37.678,0.00,53.627
		C 494.396,95.586, 453.47,118.99, 390.478,141.954z" />
<glyph unicode="&#x0022;" d="M 509.679,38.736c0.00,0.00-1.008,93.171-6.897,102.831c-8.763,14.384-29.181,24.267-67.09,39.565
		c-37.782,15.259-49.862,28.123-49.862,55.688c0.00,16.542, 11.534,11.132, 16.609,41.424c 2.097,12.573, 12.287,0.207, 14.237,28.895
		c0.00,11.438-5.56,14.28-5.56,14.28s 2.825,16.915, 3.929,29.938c 1.372,16.231-8.466,58.14-60.902,58.14
		c-52.449,0.00-62.279-41.91-60.907-58.14c 1.107-13.022, 3.921-29.938, 3.921-29.938s-5.552-2.842-5.552-14.28
		c 1.95-28.688, 12.131-16.322, 14.24-28.895c 5.063-30.291, 16.605-24.883, 16.605-41.424c0.00-18.742-5.612-30.686-21.073-41.217
		c 82.546-39.907, 93.61-48.046, 93.61-83.723l0.00-73.144 L 509.679,38.736 z M 260.651,167.278c-50.387,20.35-66.486,37.504-66.486,74.243
		c0.00,22.057, 15.383,14.853, 22.137,55.243c 2.798,16.755, 16.39,0.275, 18.985,38.527c0.00,15.243-7.411,19.033-7.411,19.033
		s 3.769,22.558, 5.241,39.919c 1.831,21.636-11.283,77.518-81.212,77.518c-69.917,0.00-83.043-55.883-81.20-77.518
		c 1.473-17.361, 5.233-39.919, 5.233-39.919s-7.414-3.789-7.414-19.033c 2.606-38.252, 16.19-21.77, 18.997-38.527
		c 6.754-40.389, 22.137-33.186, 22.137-55.243c0.00-36.74-16.107-53.894-66.486-74.243c-15.35-6.197-42.932-15.801-42.932-38.90
		l0.00-89.642 l 353.902,0.00 c0.00,0.00,0.00,53.03,0.00,67.214C 354.14,127.02, 311.184,146.872, 260.651,167.278z" />
<glyph unicode="&#x0023;" d="M 315.502,141.954C 252.045,164.835, 231.771,184.142, 231.771,225.478c0.00,24.812, 19.367,16.705, 27.877,62.148
		c 3.53,18.845, 20.645,0.303, 23.916,43.338c0.00,17.146-9.341,21.412-9.341,21.412s 4.752,25.376, 6.606,44.91
		c 2.308,24.338-14.208,87.21-102.286,87.21c-88.074,0.00-104.594-62.872-102.281-87.21
		c 1.855-19.534, 6.603-44.91, 6.603-44.91s-9.345-4.267-9.345-21.412c 3.28-43.036, 20.39-24.493, 23.916-43.338
		c 8.518-45.444, 27.884-37.337, 27.884-62.148c0.00-41.337-20.278-60.644-83.74-83.525c-7.638-2.754-25.854-7.036-41.34-13.719
		l0.00-102.234 l 407.552,0.00 c0.00,0.00,0.00,37.678,0.00,53.627C 407.791,95.586, 379.163,118.99, 315.502,141.954z M 433.263,280.72l0.00,76.416 l-50.944,0.00 l0.00-76.416 l-76.416,0.00 l0.00-50.944 
		l 76.416,0.00 l0.00-76.416 l 50.944,0.00 l0.00,76.416 l 76.416,0.00 l0.00,50.944 L 433.263,280.72 z" />
<glyph unicode="&#x0024;" d="M 509.44,64.24L 509.44,255.28 l-127.36,0.00 c0.00,70.207, 57.089,127.36, 127.36,127.36L 509.44,446.32 c-105.343,0.00-191.04-85.697-191.04-191.04l0.00-191.04 L 509.44,64.24 zM 191.04,64.24L 191.04,255.28 L 63.68,255.28 c0.00,70.207, 57.089,127.36, 127.36,127.36L 191.04,446.32 C 85.697,446.32,0.00,360.623,0.00,255.28l0.00-191.04 L 191.04,64.24 z" />
<glyph unicode="&#x0025;" d="M 504.794,100.727c-0.002,0.002-0.004,0.004-0.006,0.005L 350.243,255.28l 154.545,154.548c 0.002,0.002, 0.004,0.003, 0.006,0.005
		c 1.664,1.665, 2.867,3.609, 3.638,5.679c 2.112,5.66, 0.907,12.279-3.644,16.83L 431.782,505.349c-4.551,4.55-11.169,5.754-16.829,3.642
		c-2.07-0.771-4.015-1.974-5.68-3.637c0.00-0.002-0.002-0.003-0.004-0.005L 254.721,350.80L 100.174,505.348
		c-0.002,0.002-0.003,0.003-0.005,0.005c-1.665,1.663-3.609,2.866-5.678,3.637c-5.662,2.113-12.279,0.908-16.83-3.642L 4.653,432.341
		c-4.551-4.551-5.755-11.17-3.643-16.829c 0.772-2.07, 1.975-4.016, 3.638-5.679c 0.002-0.001, 0.003-0.003, 0.005-0.005L 159.201,255.28
		L 4.653,100.731c-0.001-0.002-0.003-0.003-0.004-0.005c-1.663-1.665-2.866-3.609-3.639-5.678c-2.113-5.66-0.908-12.279, 3.643-16.83
		l 73.007-73.006c 4.552-4.551, 11.17-5.755, 16.83-3.643c 2.07,0.772, 4.015,1.975, 5.679,3.638c 0.001,0.002, 0.003,0.003, 0.005,0.005
		l 154.547,154.548l 154.547-154.548c 0.002-0.001, 0.004-0.003, 0.006-0.004c 1.666-1.664, 3.609-2.867, 5.678-3.639
		c 5.661-2.112, 12.28-0.908, 16.829,3.643l 73.006,73.007c 4.551,4.551, 5.756,11.171, 3.644,16.83
		C 507.661,97.118, 506.458,99.062, 504.794,100.727z" />
<glyph unicode="&#x0026;" d="M 493.52,318.96L 318.40,318.96 L 318.40,494.08 c0.00,8.792-7.128,15.92-15.92,15.92l-95.52,0.00 c-8.792,0.00-15.92-7.128-15.92-15.92l0.00-175.12 L 15.92,318.96 c-8.792,0.00-15.92-7.128-15.92-15.92l0.00-95.52 
	c0.00-8.792, 7.128-15.92, 15.92-15.92l 175.12,0.00 l0.00-175.12 c0.00-8.792, 7.128-15.92, 15.92-15.92l 95.52,0.00 c 8.792,0.00, 15.92,7.128, 15.92,15.92L 318.40,191.60 l 175.12,0.00 c 8.792,0.00, 15.92,7.128, 15.92,15.92l0.00,95.52 
	C 509.44,311.832, 502.312,318.96, 493.52,318.96z" />
<glyph unicode="&#x0027;" d="M 429.84,462.24L 191.04,223.44L 79.60,334.88L0.00,255.28L 191.04,64.24L 509.44,382.64 z" />
<glyph unicode="&#x0028;" d="M0.00,303.04l0.00-95.52 c0.00-8.792, 7.128-15.92, 15.92-15.92l 477.60,0.00 c 8.792,0.00, 15.92,7.128, 15.92,15.92l0.00,95.52 c0.00,8.792-7.128,15.92-15.92,15.92L 15.92,318.96 C 7.128,318.96,0.00,311.832,0.00,303.04z" />
<glyph unicode="&#x0029;" d="M0.00,96.08L 509.44,96.08L 509.44,32.40L0.00,32.40zM 63.68,223.44L 127.36,223.44L 127.36,127.92L 63.68,127.92zM 159.20,350.80L 222.88,350.80L 222.88,127.92L 159.20,127.92zM 254.72,255.28L 318.40,255.28L 318.40,127.92L 254.72,127.92zM 350.24,446.32L 413.92,446.32L 413.92,127.92L 350.24,127.92z" />
<glyph unicode="&#x002a;" d="M 447.486,405.089l-74.797,87.264C 363.922,502.579, 347.785,510.00, 334.32,510.00L 79.60,510.00 C 62.043,510.00, 47.76,495.717, 47.76,478.16l0.00-445.76 c0.00-17.557, 14.282-31.84, 31.84-31.84
		l 350.24,0.00 c 17.557,0.00, 31.84,14.283, 31.84,31.84L 461.68,366.72 C 461.68,379.358, 455.71,395.495, 447.486,405.089z M 350.24,489.735c 4.121-2.101, 7.841-4.802, 10.36-7.742
		l 74.799-87.265c 2.636-3.077, 5.044-7.432, 6.878-12.087L 350.24,382.64 L 350.24,489.735 z M 445.76,32.40c0.00-8.756-7.164-15.92-15.92-15.92L 79.60,16.48 c-8.756,0.00-15.92,7.164-15.92,15.92L 63.68,478.16 
		c0.00,8.756, 7.164,15.92, 15.92,15.92l 254.72,0.00 l0.00-127.36 l 111.44,0.00 L 445.76,32.40 zM 318.29,273.244L 340.285,273.244L 314.907,160.72L 281.909,318.93L 228.901,318.93L 190.537,160.72L 161.773,318.93L 106.355,318.93L 162.618,64.269L 216.765,64.269L 254.721,214.866L 288.678,64.269L 338.596,64.269L 403.086,318.93L 318.29,318.93 	
		z" />
<glyph unicode="&#x002b;" d="M 447.486,405.089l-74.797,87.264C 363.922,502.579, 347.785,510.00, 334.32,510.00L 79.60,510.00 C 62.043,510.00, 47.76,495.717, 47.76,478.16l0.00-445.76 c0.00-17.557, 14.282-31.84, 31.84-31.84
		l 350.24,0.00 c 17.557,0.00, 31.84,14.283, 31.84,31.84L 461.68,366.72 C 461.68,379.358, 455.71,395.495, 447.486,405.089z M 350.24,489.735c 4.121-2.101, 7.841-4.802, 10.36-7.742
		l 74.799-87.265c 2.636-3.077, 5.044-7.432, 6.878-12.087L 350.24,382.64 L 350.24,489.735 z M 445.76,32.40c0.00-8.756-7.164-15.92-15.92-15.92L 79.60,16.48 c-8.756,0.00-15.92,7.164-15.92,15.92L 63.68,478.16 
		c0.00,8.756, 7.164,15.92, 15.92,15.92l 254.72,0.00 l0.00-127.36 l 111.44,0.00 L 445.76,32.40 zM 302.479,255.28c-43.965,0.00-79.60-35.637-79.60-79.60s 35.636-79.60, 79.60-79.60c 43.963,0.00, 79.60,35.637, 79.60,79.60S 346.442,255.28, 302.479,255.28z M 302.479,175.68
		l0.00,63.68 c 35.111,0.00, 63.68-28.566, 63.68-63.68L 302.479,175.68 zM 95.52,255.28L 191.04,255.28L 191.04,223.44L 95.52,223.44zM 95.52,191.60L 191.04,191.60L 191.04,159.76L 95.52,159.76zM 95.52,127.92L 191.04,127.92L 191.04,96.08L 95.52,96.08z" />
<glyph unicode="&#x002c;" d="M 447.486,405.089l-74.797,87.264C 363.922,502.579, 347.786,510.00, 334.32,510.00L 79.60,510.00 C 62.043,510.00, 47.76,495.717, 47.76,478.16l0.00-445.76 c0.00-17.557, 14.283-31.84, 31.84-31.84
	l 350.24,0.00 c 17.557,0.00, 31.84,14.283, 31.84,31.84L 461.68,366.72 C 461.68,379.358, 455.71,395.495, 447.486,405.089z M 350.24,489.735c 4.121-2.101, 7.841-4.802, 10.361-7.742
	l 74.798-87.265c 2.637-3.077, 5.045-7.432, 6.878-12.087L 350.24,382.64 L 350.24,489.735 z M 445.76,32.40c0.00-8.756-7.164-15.92-15.92-15.92L 79.60,16.48 c-8.756,0.00-15.92,7.164-15.92,15.92L 63.68,478.16 
	c0.00,8.756, 7.164,15.92, 15.92,15.92l 254.72,0.00 l0.00-127.36 l 111.44,0.00 L 445.76,32.40 z" />
<glyph unicode="&#x002d;" d="M 447.486,405.089l-74.797,87.264C 363.922,502.579, 347.785,510.00, 334.32,510.00L 79.60,510.00 C 62.043,510.00, 47.76,495.717, 47.76,478.16l0.00-445.76 c0.00-17.557, 14.282-31.84, 31.84-31.84
		l 350.24,0.00 c 17.557,0.00, 31.84,14.283, 31.84,31.84L 461.68,366.72 C 461.68,379.358, 455.71,395.495, 447.486,405.089z M 350.24,489.735c 4.121-2.101, 7.841-4.802, 10.36-7.742
		l 74.799-87.265c 2.636-3.077, 5.044-7.432, 6.878-12.087L 350.24,382.64 L 350.24,489.735 z M 445.76,32.40c0.00-8.756-7.164-15.92-15.92-15.92L 79.60,16.48 c-8.756,0.00-15.92,7.164-15.92,15.92L 63.68,478.16 
		c0.00,8.756, 7.164,15.92, 15.92,15.92l 254.72,0.00 l0.00-127.36 l 111.44,0.00 L 445.76,32.40 zM 369.656,318.96L 302.348,318.96L 254.721,248.797L 207.09,318.96L 139.785,318.96L 220.46,198.334L 129.431,64.24L 259.895,64.24L 259.895,109.799L 229.768,109.799L 254.721,147.109L 310.141,64.24L 380.01,64.24L 288.98,198.334 	z" />
<glyph unicode="&#x002e;" d="M 143.28,350.80L 79.60,350.80 c-8.756,0.00-15.92-7.164-15.92-15.92l0.00-31.84 c0.00-8.756, 7.164-15.92, 15.92-15.92l 63.68,0.00 c 8.756,0.00, 15.92,7.164, 15.92,15.92l0.00,31.84 C 159.20,343.636, 152.036,350.80, 143.28,350.80zM 95.52,446.32L 127.36,446.32L 127.36,366.72L 95.52,366.72zM 95.52,271.20L 127.36,271.20L 127.36,64.24L 95.52,64.24zM 270.64,223.44l-63.68,0.00 c-8.756,0.00-15.92-7.164-15.92-15.92l0.00-31.84 c0.00-8.756, 7.164-15.92, 15.92-15.92l 63.68,0.00 c 8.757,0.00, 15.92,7.164, 15.92,15.92l0.00,31.84 C 286.56,216.276, 279.397,223.44, 270.64,223.44zM 222.881,446.32L 254.721,446.32L 254.721,239.36L 222.881,239.36zM 222.881,143.84L 254.721,143.84L 254.721,64.24L 222.881,64.24zM 398.00,318.96l-63.68,0.00 c-8.755,0.00-15.92-7.164-15.92-15.92l0.00-31.84 c0.00-8.756, 7.165-15.92, 15.92-15.92l 63.68,0.00 c 8.757,0.00, 15.92,7.164, 15.92,15.92l0.00,31.84 C 413.92,311.796, 406.757,318.96, 398.00,318.96zM 350.24,446.32L 382.08,446.32L 382.08,334.88L 350.24,334.88zM 350.24,239.36L 382.08,239.36L 382.08,64.24L 350.24,64.24zM 437.80,510.00L 39.80,510.00 C 17.854,510.00,0.00,492.146,0.00,470.20l0.00-429.84 c0.00-21.946, 17.854-39.80, 39.80-39.80l 398.00,0.00 c 21.946,0.00, 39.80,17.854, 39.80,39.80L 477.60,470.20 
		C 477.60,492.146, 459.746,510.00, 437.80,510.00z M 445.76,40.36c0.00-4.378-3.582-7.96-7.96-7.96L 39.80,32.40 c-4.378,0.00-7.96,3.582-7.96,7.96L 31.84,470.20 c0.00,4.378, 3.582,7.96, 7.96,7.96l 398.00,0.00 c 4.378,0.00, 7.96-3.582, 7.96-7.96L 445.76,40.36 z" />
<glyph unicode="&#x002f;" d="M 447.486,405.089l-74.797,87.264C 363.922,502.579, 347.785,510.00, 334.32,510.00L 79.60,510.00 C 62.043,510.00, 47.76,495.717, 47.76,478.16l0.00-445.76 c0.00-17.557, 14.282-31.84, 31.84-31.84
		l 350.24,0.00 c 17.557,0.00, 31.84,14.283, 31.84,31.84L 461.68,366.72 C 461.68,379.358, 455.71,395.495, 447.486,405.089z M 350.24,489.735c 4.121-2.101, 7.841-4.802, 10.36-7.742
		l 74.799-87.265c 2.636-3.077, 5.044-7.432, 6.878-12.087L 350.24,382.64 L 350.24,489.735 z M 445.76,32.40c0.00-8.756-7.164-15.92-15.92-15.92L 79.60,16.48 c-8.756,0.00-15.92,7.164-15.92,15.92L 63.68,478.16 
		c0.00,8.756, 7.164,15.92, 15.92,15.92l 254.72,0.00 l0.00-127.36 l 111.44,0.00 L 445.76,32.40 zM 222.88,223.44L 191.04,255.28L 95.52,159.76L 191.04,64.24L 222.88,96.08L 159.20,159.76 	zM 286.56,96.08L 318.40,64.24L 413.92,159.76L 318.40,255.28L 286.56,223.44L 350.24,159.76 	z" />
<glyph unicode="&#x0030;" d="M 223.711,464.119c 113.239,0.00, 205.30-90.709, 208.075-203.653l 62.594,0.00 l-93.693-104.435l-93.693,104.435l 72.739,0.00 
			c-2.75,84.097-71.524,151.435-156.02,151.435c-86.242,0.00-156.156-70.132-156.156-156.653s 69.912-156.653, 156.156-156.653
			c 34.587,0.00, 66.526,11.299, 92.40,30.391l 35.804-38.315c-35.346-27.741-79.847-44.293-128.204-44.293
			c-114.995,0.00-208.205,93.511-208.205,208.87C 15.506,370.601, 108.718,464.119, 223.711,464.119z" />
<glyph unicode="&#x0031;" d="M 447.486,405.089l-74.797,87.264C 363.922,502.579, 347.785,510.00, 334.32,510.00L 79.60,510.00 C 62.043,510.00, 47.76,495.717, 47.76,478.16l0.00-445.76 c0.00-17.557, 14.282-31.84, 31.84-31.84
		l 350.24,0.00 c 17.557,0.00, 31.84,14.283, 31.84,31.84L 461.68,366.72 C 461.68,379.358, 455.71,395.495, 447.486,405.089z M 350.24,489.735c 4.121-2.101, 7.841-4.802, 10.36-7.742
		l 74.799-87.265c 2.636-3.077, 5.044-7.432, 6.878-12.087L 350.24,382.64 L 350.24,489.735 z M 445.76,32.40c0.00-8.756-7.164-15.92-15.92-15.92L 79.60,16.48 c-8.756,0.00-15.92,7.164-15.92,15.92L 63.68,478.16 
		c0.00,8.756, 7.164,15.92, 15.92,15.92l 254.72,0.00 l0.00-127.36 l 111.44,0.00 L 445.76,32.40 zM 292.641,237.656c-19.718,18.41-36.248,43.991-46.505,72.654c 0.703,2.744, 1.379,5.426, 1.99,8.136
		c 2.855,12.832, 4.899,55.23, 4.899,55.23s-8.11-31.852-9.388-36.658c-0.82-3.049-1.854-6.303-3.027-9.69
		c-6.22,21.873-9.386,43.094-9.386,59.171c0.00,4.551, 0.388,13.378, 1.68,20.371c 0.624,4.989, 2.447,7.581, 4.319,8.833
		c 3.712-0.901, 7.856-6.59, 12.191-16.11c 3.724-8.229, 3.493-17.764, 3.493-23.663c0.00,0.00, 3.994,14.511, 3.071,23.146
		c-0.56,5.185-5.497,18.767-15.982,18.257l-0.856,0.00 l-4.666,0.171c-7.656,0.00-14.819-3.70-16.55-9.884
		c-6.434-23.719, 0.767-60.375, 12.776-106.071l-3.635-8.835c-9.192-22.408-20.678-44.721-30.786-64.532
		c-41.721-81.637-74.175-125.679-95.816-128.763l-0.093,0.891c-0.471,10.181, 18.334,36.448, 43.807,57.321
		c 2.655,2.155, 13.985,13.12, 13.985,13.12s-15.303-8.09-18.739-10.17c-31.917-19.058-47.807-38.146-50.396-50.817
		c-0.767-3.764-0.261-8.388, 3.059-10.286l 8.167-4.104c 22.216-11.126, 49.522,18.112, 85.845,81.767
		c 36.961,12.125, 83.074,23.548, 125.062,29.732c 37.581-21.474, 80.689-31.698, 97.249-27.279c 3.15,0.834, 6.473,3.301, 8.166,5.583
		c 1.327,2.098, 3.174,10.496, 3.174,10.496s-3.109-4.258-5.672-5.507c-10.488-4.95-43.578,3.305-77.542,19.923
		c 29.366,3.125, 53.836,3.254, 66.914-0.925c 16.603-5.299, 16.603-10.743, 16.381-11.846c 0.222,0.913, 0.975,4.555, 0.887,6.106
		c-0.378,3.98-1.597,7.534-4.609,10.476c-6.149,6.056-21.331,9.116-42.012,9.389c-15.59,0.173-34.275-1.197-54.57-4.096
		C 310.231,224.529, 300.414,230.387, 292.641,237.656z M 189.434,184.947c 6.287,11.174, 13.10,23.342, 20.068,36.465
		c 13.49,25.511, 21.667,45.203, 28.546,63.734c 10.845-21.814, 25.808-42.543, 45.437-59.159c 4.374-3.704, 9.024-7.206, 13.813-10.511
		C 261.659,208.849, 224.219,199.521, 189.434,184.947z" />
<glyph unicode="&#x0032;" d="M 374.566,268.315L 156.494,403.419c-15.892,10.428-28.895,2.754-28.895-17.046l0.00-262.262 c0.00-19.789, 13.002-27.462, 28.895-17.043
		L 374.566,242.166c0.00,0.00, 7.753,5.452, 7.753,13.078C 382.319,262.861, 374.566,268.315, 374.566,268.315z" />
<glyph unicode="&#x0033;" d="M 344.111,433.552c-25.329,0.00-45.85-7.793-45.85-33.114l0.00-290.381 c0.00-25.324, 20.52-33.114, 45.85-33.114c 25.321,0.00, 45.85,7.788, 45.85,33.114l0.00,290.381 
			C 389.961,425.759, 369.432,433.552, 344.111,433.552zM 165.806,433.552c-25.329,0.00-45.85-7.793-45.85-33.114l0.00-290.381 c0.00-25.324, 20.52-33.114, 45.85-33.114c 25.321,0.00, 45.85,7.788, 45.85,33.114l0.00,290.381 
			C 211.656,425.759, 191.128,433.552, 165.806,433.552z" />
<glyph unicode="&#x0034;" d="M 30.806,255.248c0.00-7.116, 7.113-12.211, 7.113-12.211l 190.085-126.086c 14.586-9.731, 26.547-2.575, 26.547,15.912L 254.549,377.633 
		c0.00,18.475-11.961,25.639-26.547,15.909L 37.918,267.446C 37.918,267.446, 30.806,262.36, 30.806,255.248z M 261.984,255.248
		c0.00-7.116, 7.113-12.211, 7.113-12.211l 183.478-126.086c 14.586-9.731, 26.539-2.575, 26.539,15.912L 479.113,377.633 
		c0.00,18.475-11.951,25.639-26.539,15.909L 269.096,267.446C 269.096,267.446, 261.984,262.36, 261.984,255.248z" />
<glyph unicode="&#x0035;" d="M 471.988,267.455L 281.912,393.553c-14.586,9.719-26.547,2.562-26.547-15.912l0.00-244.778 
		c0.00-18.479, 11.961-25.643, 26.547-15.912l 190.076,126.095c0.00,0.00, 7.124,5.086, 7.124,12.202
		C 479.113,262.36, 471.988,267.455, 471.988,267.455z M 240.818,267.455L 57.341,393.553c-14.586,9.719-26.535,2.562-26.535-15.912
		l0.00-244.778 c0.00-18.479, 11.947-25.643, 26.535-15.912l 183.478,126.095c0.00,0.00, 7.116,5.086, 7.116,12.202
		C 247.934,262.36, 240.818,267.455, 240.818,267.455z" />
<glyph unicode="&#x0036;" d="M 190.888,255.244c0.00-6.568, 6.678-11.264, 6.678-11.264l 185.328-116.399c 13.692-8.971, 24.894-2.365, 24.894,14.686L 407.79,368.224 
		c0.00,17.054-11.204,23.661-24.894,14.674L 197.567,266.507C 197.567,266.507, 190.888,261.811, 190.888,255.244z M 102.126,373.518l0.00-236.543 
		c0.00-22.614, 15.59-29.571, 38.208-29.571c 22.614,0.00, 38.208,6.957, 38.208,29.571l0.00,236.543 c0.00,22.618-15.594,29.571-38.208,29.571
		C 117.716,403.089, 102.126,396.136, 102.126,373.518z" />
<glyph unicode="&#x0037;" d="M 312.351,266.507L 127.022,382.903c-13.692,8.982-24.894,2.372-24.894-14.682l0.00-225.949 c0.00-17.054, 11.204-23.661, 24.894-14.686
		L 312.351,243.981c0.00,0.00, 6.675,4.696, 6.675,11.264S 312.351,266.507, 312.351,266.507z M 369.583,403.086c-22.618,0.00-38.208-6.953-38.208-29.563
		l0.00-236.547 c0.00-22.614, 15.59-29.568, 38.208-29.568c 22.614,0.00, 38.208,6.953, 38.208,29.568L 407.791,373.522 C 407.791,396.132, 392.197,403.086, 369.583,403.086
		z" />
<glyph unicode="&#x0038;" d="M 369.583,408.08l-229.248,0.00 c-25.329,0.00-38.208-7.793-38.208-33.114l0.00-239.437 c0.00-25.324, 12.879-33.114, 38.208-33.114l 229.248,0.00 c 25.321,0.00, 38.208,7.788, 38.208,33.114l0.00,239.437 
		C 407.791,400.287, 394.904,408.08, 369.583,408.08z" />
<glyph unicode="&#x0039;" d="M0.00,446.32l0.00-191.04 l 127.36,0.00 c0.00-70.207-57.089-127.36-127.36-127.36l0.00-63.68 c 105.343,0.00, 191.04,85.697, 191.04,191.04L 191.04,446.32 L0.00,446.32 zM 318.40,446.32l0.00-191.04 l 127.36,0.00 c0.00-70.207-57.089-127.36-127.36-127.36l0.00-63.68 c 105.343,0.00, 191.04,85.697, 191.04,191.04L 509.44,446.32 L 318.40,446.32 z" />
<glyph unicode="&#x003a;" d="M 261.144,61.661L 261.163,159.148L 439.886,159.131L 439.886,351.524L 261.144,351.524L 261.163,448.836L 67.994,255.236 	z" />
<glyph unicode="&#x003b;" d="M 447.528,262.452L 350.037,262.467L 350.057,441.194L 157.668,441.194L 157.668,262.452L 60.352,262.467L 253.956,69.303 
			z" />
<glyph unicode="&#x003c;" d="M 447.528,248.045L 350.037,248.02L 350.057,69.303L 157.672,69.303L 157.672,248.045L 60.352,248.02L 253.96,441.194 	z" />
<glyph unicode="&#x003d;" d="M 246.736,448.836L 246.716,351.341L 67.994,351.364L 67.994,158.971L 246.736,158.971L 246.716,61.661L 439.886,255.256 	z" />
<glyph unicode="&#x003e;" d="M 391.409,73.569L 464.418,0.56L 509.44,45.582L 436.431,118.591L 509.44,191.60L 318.40,191.60L 318.40,0.56 		zM0.00,318.96L 191.04,318.96L 191.04,510.00L 118.031,436.991L 45.77,509.315L 0.748,464.294L 73.009,391.969 		zM0.00,45.582L 45.022,0.56L 118.031,73.569L 191.04,0.56L 191.04,191.60L0.00,191.60L 73.009,118.591 		zM 318.40,318.96L 509.44,318.96L 436.431,391.969L 508.819,464.294L 463.797,509.315L 391.409,436.991L 318.40,510.00 		z" />
<glyph unicode="&#x003f;" d="M 436.431,118.591L 363.422,191.60L 318.40,146.578L 391.409,73.569L 318.40,0.56L 509.44,0.56L 509.44,191.60 		zM 191.04,510.00L0.00,510.00L0.00,318.96L 73.009,391.969L 145.334,319.708L 190.355,364.73L 118.031,436.991 		zM 191.04,146.578L 146.018,191.60L 73.009,118.591L0.00,191.60L0.00,0.56L 191.04,0.56L 118.031,73.569 		zM 509.44,510.00L 318.40,510.00L 391.409,436.991L 319.085,364.73L 364.106,319.708L 436.431,391.969L 509.44,318.96 		z" />
<glyph unicode="&#x0040;" d="M 436.438,340.029L 384.337,483.572c-3.848,10.595-15.135,16.206-25.194,12.537L 12.792,369.712
		C 2.727,366.043-2.32,354.469, 1.528,343.875l 54.936-151.352L 56.464,273.656 c0.00,36.596, 29.265,66.374, 65.228,66.374l 91.516,0.00 L 322.36,416.645
		l 63.162-76.615L 436.438,340.03 z M 490.273,294.085l-368.58,0.00 c-10.709,0.00-19.398-9.15-19.398-20.43l0.00-239.971 
		c0.00-11.275, 8.688-20.421, 19.398-20.421l 368.58,0.00 c 10.719,0.00, 19.407,9.145, 19.407,20.421L 509.679,273.656 
		C 509.679,284.936, 500.99,294.085, 490.273,294.085z M 462.146,64.324L 156.617,64.324 L 156.617,108.088 l 47.004,109.406l 70.51-87.532
		l 66.148,67.807l 85.048,30.69l 36.818-82.072L 462.146,64.324 z" />
<glyph unicode="&#x0041;" d="M 504.585,382.608l0.00,30.566 c0.00,11.256-9.13,20.378-20.378,20.378l-458.496,0.00 c-11.256,0.00-20.378-9.122-20.378-20.378l0.00-30.566 l 50.944,0.00 l0.00-50.944 l-50.944,0.00 l0.00-50.944 l 50.944,0.00 l0.00-50.944 l-50.944,0.00 l0.00-50.944 l 50.944,0.00 
		l0.00-50.944 l-50.944,0.00 l0.00-30.566 c0.00-11.256, 9.122-20.378, 20.378-20.378l 458.496,0.00 c 11.247,0.00, 20.378,9.122, 20.378,20.378l0.00,30.566 l-50.944,0.00 l0.00,50.944 l 50.944,0.00 l0.00,50.944 l-50.944,0.00 l0.00,50.944 l 50.944,0.00 l0.00,50.944 l-50.944,0.00 l0.00,50.944 L 504.585,382.608 
		z M 198.92,178.832l0.00,152.832 l 127.36-76.416L 198.92,178.832z" />
<glyph unicode="&#x0042;" d="M 382.319,484.496l-254.72,0.00 c-28.019,0.00-50.944-22.925-50.944-50.944l0.00-356.608 c0.00-28.019, 22.925-50.944, 50.944-50.944l 254.72,0.00 c 28.019,0.00, 50.944,22.925, 50.944,50.944l0.00,356.608 
		C 433.263,461.572, 410.339,484.496, 382.319,484.496z M 326.181,241.987c-6.053-9.425-9.266-5.397-7.442,0.00
		c 4.804,14.208, 4.604,57.224-35.466,63.536l0.00-132.781 c0.00-24.752-14.249-40.298-44.56-50.021
		c-29.452-9.445-62.415,0.366-70.116,21.524c-7.702,21.154, 9.616,46.877, 38.682,57.463
		c 16.214,5.89, 32.659,5.819, 45.372,0.931L 252.651,389.931 l 30.622,0.00 C 283.273,357.773, 369.392,309.208, 326.181,241.987z" />
<glyph unicode="&#x0043;" d="M 485.986,331.664L 23.928,331.664 c-23.45,0.00-24.62-11.419-23.347-25.368l 21.023-229.455c 1.274-13.949, 4.577-25.368, 27.996-25.368
		L 460.315,51.472 c 23.881,0.00, 26.722,11.419, 27.996,25.368l 21.027,229.455C 510.611,320.246, 509.44,331.664, 485.986,331.664z M 469.031,387.703
		c-2.825,11.208-16.684,20.378-30.806,20.378L 264.654,408.08 c-14.126,0.00-33.849,8.088-43.856,17.973l-15.167,14.997
		c-9.998,9.886-29.731,17.973-43.852,17.973L 78.847,459.024 c-14.117,0.00-26.944-11.391-28.501-25.317L 42.909,367.325l 431.256,0.00 
		L 469.031,387.703z" />
<glyph unicode="&#x0044;" d="M 432.446,382.608c0.00,25.472-25.353,25.472-25.353,25.472L 102.823,408.08 c0.00,0.00-25.353,0.00-25.353-25.472l0.00-25.472 l 354.977,0.00 L 432.447,382.608 z M 356.385,459.024L 153.533,459.024 
		c0.00,0.00-25.353,0.00-25.353-25.472l 253.557,0.00 C 381.738,459.024, 356.385,459.024, 356.385,459.024z M 483.156,357.136
		c-15.004,15.076-15.004,15.076-15.004,15.076l0.00-40.548 L 41.766,331.664 l0.00,40.548 c0.00,0.00,0.00,0.00-15.004-15.076S 1.004,338.012, 7.045,306.172
		c 6.01-31.717, 35.108-205.686, 39.434-229.232c 4.748-25.806, 30.992-25.468, 30.992-25.468l 354.977,0.00 c0.00,0.00, 26.24-0.338, 30.988,25.468
		c 4.326,23.546, 33.416,197.516, 39.438,229.232C 508.911,338.012, 498.161,342.06, 483.156,357.136z M 356.373,219.588
		c0.00,0.00,0.00-25.472-25.353-25.472L 178.893,194.116 c-25.353,0.00-25.353,25.472-25.353,25.472l0.00,50.944 l 35.498,0.00 l0.00-40.755 l 131.77,0.00 l0.00,40.755 l 35.565,0.00 L 356.373,219.588 z" />
<glyph unicode="&#x0045;" d="M 254.962,464.119c-109.012,0.00-176.74-35.92-173.07-65.052l 36.728-302.277c 1.473-11.761, 56.571-50.351, 136.342-50.411
		c 79.759,0.06, 134.862,38.65, 136.335,50.411l 36.728,302.277C 431.694,428.199, 363.976,464.119, 254.962,464.119z M 254.962,354.828
		c-79.771,0.06-136.342,28.477-136.342,39.091c-0.04,10.556, 56.584,39.016, 136.342,38.972
		c 79.747,0.044, 136.383-28.417, 136.335-38.972C 391.298,383.305, 334.721,354.888, 254.962,354.828z" />
<glyph unicode="&#x0046;" d="M 458.735,459.024l-407.552,0.00 c-28.019,0.00-50.944-22.925-50.944-50.944l0.00-305.664 c0.00-28.019, 22.925-50.944, 50.944-50.944l 407.552,0.00 c 28.019,0.00, 50.944,22.925, 50.944,50.944l0.00,305.664 
		C 509.679,436.10, 486.755,459.024, 458.735,459.024z M 458.735,102.416l-407.552,0.00 l0.00,305.664 l 407.552,0.00 L 458.735,102.416 z M 229.486,201.757l-127.36,0.00 l0.00-45.85 l 127.36,0.00 
		L 229.486,201.757 z M 229.486,278.173l-127.36,0.00 l0.00-45.85 l 127.36,0.00 L 229.486,278.173 z M 229.486,354.589l-127.36,0.00 l0.00-45.85 l 127.36,0.00 L 229.486,354.589 z M 405.244,191.568
		c0.00,0.00-43.298,11.331-43.298,33.568c0.00,21.198, 28.015,30.113, 28.015,73.415c0.00,35.168-10.683,56.038-45.85,56.038s-45.85-20.872-45.85-56.038
		c0.00-43.302, 28.011-52.218, 28.011-73.415c0.00-22.236-43.294-33.568-43.294-33.568c-2.547,0.00-2.547-35.661-2.547-35.661l 127.36,0.00 
		C 407.791,155.908, 407.791,191.568, 405.244,191.568z" />
<glyph unicode="&#x0047;" d="M 433.263,433.552l-22.925,0.00 l0.00-50.944 l-81.51,0.00 l0.00,50.944 l-147.738,0.00 l0.00-50.944 l-81.51,0.00 l0.00,50.944 l-22.925,0.00 c-28.019,0.00-50.944-22.925-50.944-50.944l0.00-305.664 c0.00-28.019, 22.925-50.944, 50.944-50.944l 356.608,0.00 
		c 28.019,0.00, 50.944,22.925, 50.944,50.944l0.00,305.664 C 484.207,410.628, 461.283,433.552, 433.263,433.552z M 433.263,76.944l-356.608,0.00 l0.00,203.776 l 356.608,0.00 L 433.263,76.944 z
		 M 158.165,484.496l-35.661,0.00 l0.00-86.605 l 35.661,0.00 L 158.165,484.496 z M 387.414,484.496l-35.661,0.00 l0.00-86.605 l 35.661,0.00 L 387.414,484.496 z" />
<glyph unicode="&#x0048;" d="M 490.603,499.632c-2.77,8.035-11.451,12.266-19.374,9.473c-7.932-2.798-12.124-11.579-9.361-19.605
		c 23.426-68.01-23.073-118.791-58.51-145.994l-14.352,20.744c-4.804,6.938-15.578,12.712-23.94,12.836l-80.372-0.366
		c-8.358,0.131-20.812-3.741-27.665-8.60L 20.227,200.296c-11.471-8.127-14.264-24.127-6.232-35.744l 107.63-155.574
		c 8.032-11.61, 20.939-10.22, 32.409-2.093l 236.806,167.817c 6.85,4.859, 14.694,15.379, 17.452,23.378l 25.169,80.141
		c 2.743,7.999, 1.071,20.223-3.737,27.159l-8.748,12.64C 468.613,354.836, 518.041,419.976, 490.603,499.632z M 380.428,261.318
		c-18.355-12.999-43.656-8.477-56.50,10.089c-12.855,18.586-8.398,44.178, 9.966,57.193
		c 14.567,10.324, 33.488,9.572, 47.107-0.45c-6.858-4.178-11.558-6.583-12.457-7.013c-7.594-3.63-10.837-12.80-7.268-20.482
		c 2.599-5.576, 8.072-8.844, 13.782-8.844c 2.169,0.00, 4.378,0.478, 6.471,1.473c 4.883,2.328, 10.137,5.142, 15.613,8.417
		C 399.616,286.598, 393.662,270.695, 380.428,261.318z" />
<glyph unicode="&#x0049;" d="M 147.976,199.21l0.00,157.926 l-96.794,0.00 c-28.019,0.00-50.944-22.925-50.944-50.944l0.00-152.832 c0.00-28.019, 22.925-50.944, 50.944-50.944l 25.472,0.00 l0.00-76.416 l 76.416,76.416l 127.36,0.00 c 28.019,0.00, 50.944,22.925, 50.944,50.944l0.00,46.367 
		c-1.643-0.342-3.359-0.518-5.094-0.518L 147.976,199.21 z M 458.735,484.496l-229.248,0.00 c-28.019,0.00-50.944-22.925-50.944-50.944l0.00-203.776 l 178.304,0.00 l 76.416-76.416l0.00,76.416 l 25.472,0.00 
		c 28.019,0.00, 50.944,22.925, 50.944,50.944l0.00,152.832 C 509.679,461.572, 486.755,484.496, 458.735,484.496z" />
<glyph unicode="&#x004a;" d="M 407.791,433.552l-305.664,0.00 c-28.019,0.00-50.944-22.925-50.944-50.944l0.00-178.304 c0.00-28.019, 22.925-50.944, 50.944-50.944l 101.888,0.00 l 101.888-76.416l0.00,76.416 l 101.888,0.00 c 28.019,0.00, 50.944,22.925, 50.944,50.944l0.00,178.304 
		C 458.735,410.628, 435.811,433.552, 407.791,433.552z" />
<glyph unicode="&#x004b;" d="M 254.958,459.024c-70.347,0.00-127.36-57.022-127.36-127.36c0.00-121.60, 127.36-280.192, 127.36-280.192s 127.36,158.592, 127.36,280.192
		C 382.319,402.003, 325.293,459.024, 254.958,459.024z M 254.958,261.362c-37.989,0.00-68.774,30.794-68.774,68.774s 30.785,68.774, 68.774,68.774
		c 37.977,0.00, 68.774-30.794, 68.774-68.774S 292.936,261.362, 254.958,261.362z" />
<glyph unicode="&#x004c;" d="M 434.943,403.734c-42.084,39.083-110.325,39.083-152.421,0.00l-28.577-26.543l-28.588,26.543
	c-42.084,39.083-110.325,39.083-152.41,0.00c-47.354-43.971-47.354-115.257,0.00-159.224l 180.998-168.075l 180.998,168.075
	C 482.297,288.477, 482.297,359.763, 434.943,403.734z M 408.133,270.636l-154.189-145.537L 99.759,270.636
	c-15.558,14.448-21.576,33.441-21.576,53.483c 0.004,20.043, 3.47,36.492, 19.029,50.936c 13.735,12.751, 32.182,19.785, 51.939,19.785
	s 38.204-12.127, 51.943-24.887l 52.854-46.518l 52.834,46.518c 13.747,12.76, 32.195,24.887, 51.955,24.887
	c 19.756,0.00, 38.204-7.032, 51.943-19.785c 15.553-14.444, 19.02-30.892, 19.025-50.936C 429.704,304.075, 423.687,285.082, 408.133,270.636z
	" />
<glyph unicode="&#x004d;" d="M 438.091,403.73c-42.586,39.083-111.623,39.083-154.214,0.00l-28.919-26.539l-28.923,26.539
		c-42.582,39.083-111.619,39.083-154.204,0.00c-47.911-43.968-47.911-115.253,0.00-159.219l 183.127-168.075l 183.131,168.075
		C 485.998,288.477, 485.998,359.763, 438.091,403.73z" />
<glyph unicode="&#x004e;" d="M 402.697,318.928l-45.85,0.00 l0.00,35.661 c0.00,73.797-33.997,117.171-101.888,117.171c-67.894,0.00-101.888-43.375-101.888-117.171l0.00-35.661 l-50.944,0.00 c-14.07,0.00-25.472-16.498-25.472-30.566
		l0.00-198.682 c0.00-14.01, 10.909-28.994, 24.242-33.293l 30.475-9.831c 13.333-4.306, 35.709-7.821, 49.718-7.821l 147.738,0.00 
		c 14.01,0.00, 36.381,3.514, 49.714,7.821l 30.475,9.831c 13.333,4.299, 24.246,19.283, 24.246,33.293l0.00,198.682 
		C 433.263,302.432, 416.766,318.928, 402.697,318.928z M 204.014,364.778c0.00,36.803, 20.306,56.038, 50.944,56.038c 30.635,0.00, 50.944-19.235, 50.944-56.038l0.00-45.85 
		l-101.888,0.00 L 204.015,364.778 z" />
<glyph unicode="&#x004f;" d="M 402.697,306.192l-45.85,0.00 l0.00,61.133 c0.00,73.797-33.989,117.171-101.888,117.171s-101.888-43.375-101.888-117.171l0.00-10.189 l 50.944,0.00 l0.00,20.378 c0.00,36.803, 20.306,56.038, 50.944,56.038
		c 30.635,0.00, 50.944-19.235, 50.944-56.038l0.00-71.322 l-203.776,0.00 c-14.07,0.00-25.472-16.498-25.472-30.566l0.00-198.682 c0.00-14.01, 10.909-28.99, 24.242-33.293l 30.475-9.831
		c 13.333-4.306, 35.709-7.821, 49.718-7.821l 147.738,0.00 c 14.01,0.00, 36.381,3.514, 49.714,7.821l 30.475,9.831
		c 13.333,4.303, 24.246,19.283, 24.246,33.293l0.00,198.682 C 433.263,289.696, 416.766,306.192, 402.697,306.192z" />
<glyph unicode="&#x0050;" d="M 251.83,489.57C 122.416,487.839, 18.921,381.513, 20.636,252.092c 1.735-129.358, 108.045-232.889, 237.459-231.167
		c 129.39,1.739, 232.91,108.065, 231.187,237.474C 487.553,387.77, 381.224,491.298, 251.83,489.57z M 277.804,411.475
		c 23.824,0.00, 30.861-13.822, 30.861-29.623c0.00-19.753-15.813-38.008-42.777-38.008c-22.566,0.00-33.305,11.355-32.677,30.109
		C 233.212,389.756, 246.45,411.475, 277.804,411.475z M 216.731,108.784c-16.278,0.00-28.206,9.874-16.812,53.32l 18.67,77.053
		c 3.248,12.35, 3.797,17.285,0.00,17.285c-4.879,0.00-26.013-8.529-38.494-16.927l-8.135,13.333
		C 211.561,285.919, 257.10,305.316, 276.626,305.316c 16.27,0.00, 18.985-19.255, 10.85-48.875l-21.388-81.005
		c-3.797-14.316-2.165-19.252, 1.624-19.252c 4.888,0.00, 20.887,5.938, 36.617,18.288l 9.218-12.35
		C 275.034,123.617, 232.996,108.784, 216.731,108.784z" />
<glyph unicode="&#x0051;" d="M 251.83,489.57C 122.416,487.839, 18.921,381.513, 20.636,252.092c 1.735-129.358, 108.045-232.889, 237.459-231.167
		c 129.39,1.731, 232.91,108.06, 231.187,237.474C 487.553,387.77, 381.224,491.29, 251.83,489.57z M 251.138,112.605l-0.008,0.00 
		l-1.29,0.019c-19.927,0.589-33.977,15.272-33.408,34.905c 0.557,19.296, 14.945,33.305, 34.212,33.305l 1.158-0.015
		c 20.485-0.609, 34.379-15.141, 33.802-35.339C 285.036,126.125, 270.867,112.605, 251.138,112.605z M 334.965,278.981
		c-4.685-6.654-14.993-14.926-27.984-25.042l-14.30-9.871c-7.848-6.105-12.581-11.844-14.367-17.492
		c-1.401-4.446-2.086-5.623-2.201-14.671l-0.029-2.301L 221.487,209.605 l 0.159,4.621c 0.66,18.992, 1.134,30.164, 8.999,39.398
		c 12.354,14.499, 39.589,32.039, 40.744,32.783c 3.908,2.937, 7.199,6.289, 9.648,9.859c 5.727,7.90, 8.27,14.126, 8.27,20.235
		c0.00,8.481-2.524,16.326-7.495,23.311c-4.785,6.742-13.874,10.157-27.013,10.157c-13.035,0.00-21.965-4.136-27.311-12.624
		c-5.485-8.725-8.267-17.889-8.267-27.251l0.00-2.328 L 162.925,307.765 l 0.104,2.428c 1.453,34.483, 13.755,59.31, 36.569,73.806
		c 14.336,9.218, 32.163,13.893, 52.965,13.893c 27.24,0.00, 50.228-6.619, 68.333-19.673c 18.34-13.221, 27.637-33.034, 27.637-58.869
		C 348.532,304.898, 343.972,291.319, 334.965,278.981z" />
<glyph unicode="&#x0052;" d="M 254.962,471.76l-137.549-129.39l 76.416,0.00 l0.00-125.33 l 122.266,0.00 L 316.095,342.37 l 76.416,0.00 L 254.962,471.76z M 492.859,177.757L 411.763,232.324l-50.005,0.00 
		l 86.613-66.446L 358.084,165.877 c-2.587,0.00-4.935-1.313-6.102-3.384l-20.816-56.934L 178.734,105.561 l-20.816,56.934
		c-1.154,2.069-3.511,3.384-6.097,3.384L 61.535,165.877 l 86.624,66.446l-50.021,0.00 L 17.058,177.757C 4.991,170.55-2.224,153.937, 1.011,140.842
		l 14.296-78.298c 3.243-13.094, 17.591-23.808, 31.88-23.808l 415.544,0.00 c 14.289,0.00, 28.633,10.714, 31.88,23.808l 14.289,78.298
		C 512.15,153.937, 504.926,170.55, 492.859,177.757z" />
<glyph unicode="&#x0053;" d="M 392.511,346.434l-76.416,0.00 L 316.095,471.76 l-122.266,0.00 L 193.83,346.434 l-76.416,0.00 l 137.549-129.394L 392.511,346.434z M 492.859,177.753L 411.763,232.324l-50.005,0.00 
		L 448.371,165.873L 358.084,165.873 c-2.587,0.00-4.935-1.309-6.102-3.38l-20.816-56.934L 178.734,105.56 l-20.816,56.934
		c-1.154,2.069-3.511,3.38-6.097,3.38L 61.535,165.873 l 86.624,66.45l-50.021,0.00 L 17.058,177.753c-12.068-7.205-19.283-23.816-16.047-36.911
		l 14.296-78.298c 3.243-13.094, 17.591-23.808, 31.88-23.808l 415.544,0.00 c 14.289,0.00, 28.633,10.714, 31.88,23.808l 14.289,78.298
		C 512.15,153.937, 504.926,170.55, 492.859,177.753z" />
<glyph unicode="&#x0054;" d="M 320.168,484.496l-137.549,0.00 c-14.07,0.00-20.378-11.406-20.378-25.472l0.00-433.024 l 91.699,91.699l 91.699-91.699l0.00,433.024 C 345.64,473.089, 334.236,484.496, 320.168,484.496z" />
<glyph unicode="&#x0055;" d="M 445.613,115.98L 349.357,212.236c 14.511,23.844, 22.869,51.847, 22.869,81.805c0.00,87.027-75.408,162.436-162.448,162.436
		c-87.023,0.00-157.576-70.557-157.576-157.592c0.00-87.031, 75.405-162.432, 162.428-162.432c 28.938,0.00, 56.038,7.836, 79.341,21.448
		l 96.777-96.782c 9.473-9.473, 24.827-9.473, 34.288,0.00l 24.003,24.00C 458.511,94.591, 455.082,106.515, 445.613,115.98z
		 M 100.694,298.885c0.00,60.258, 48.843,109.104, 109.084,109.104c 60.265,0.00, 113.959-53.691, 113.959-113.947
		s-48.851-109.104-109.108-109.104C 154.385,184.938, 100.694,238.627, 100.694,298.885z" />
<glyph unicode="&#x0056;" d="M 284.804,225.406c-37.81-37.81-81.602-73.96-98.903-56.647c-24.783,24.779-40.058,46.363-94.685,2.456
		c-54.626-43.916-12.676-73.176, 11.331-97.192c 27.701-27.705, 130.966-1.456, 233.029,100.603
		c 102.059,102.071, 128.316,205.329, 100.598,233.037c-24.012,24.012-53.276,65.949-97.176,11.324
		C 295.093,364.376, 316.665,349.092, 341.452,324.309C 358.754,307.004, 322.615,263.224, 284.804,225.406z" />
<glyph unicode="&#x0057;" d="M 40.839,375.337c 12.437-6.687, 184.628-99.182, 191.036-102.624c 6.412-3.443, 14.714-5.106, 23.084-5.106
		c 8.366,0.00, 16.669,1.664, 23.084,5.106c 6.408,3.443, 178.598,95.938, 191.032,102.624c 12.446,6.675, 24.222,27.649, 1.361,27.649L 39.482,402.985 
		C 16.636,402.986, 28.397,382.011, 40.839,375.337z M 474.345,324.393c-14.129-7.376-187.649-98.111-196.301-102.629
		c-8.656-4.518-14.718-5.106-23.084-5.106c-8.37,0.00-14.427,0.589-23.084,5.106C 223.222,226.282, 49.71,317.018, 35.569,324.393
		c-9.945,5.182-9.859-0.903-9.859-5.593c0.00-4.696,0.00-186.866,0.00-186.866c0.00-10.678, 14.225-24.426, 25.261-24.426l 407.97,0.00 
		c 11.041,0.00, 25.265,13.747, 25.265,24.426c0.00,0.00,0.00,182.169,0.00,186.866C 484.207,323.49, 484.302,329.575, 474.345,324.393z" />
<glyph unicode="&#x0058;" d="M 216.75,484.496l-22.925,0.00 c-5.604,0.00-10.189-4.581-10.189-10.189l0.00-96.794 L 93.57,377.514 
		c-4.203,0.00-9.425-0.96-14.444-2.507c-5.027-1.541-9.851-3.678-13.27-6.018l-60.496-41.528
		c-3.419-2.344-5.122-5.437-5.122-8.533c0.00-3.088, 1.704-6.177, 5.122-8.525l 60.496-41.528
		c 3.419-2.344, 8.243-4.477, 13.27-6.026c 5.019-1.549, 10.241-2.507, 14.444-2.507l 90.067,0.00 l0.00-224.154 c0.00-5.604, 4.585-10.189, 10.189-10.189l 22.925,0.00 
		c 5.60,0.00, 10.189,4.585, 10.189,10.189l0.00,438.118 C 226.939,479.916, 222.351,484.496, 216.75,484.496z M 504.548,378.401l-60.496,41.523
		c-3.419,2.347-8.243,4.477-13.27,6.03c-5.019,1.545-10.237,2.503-14.444,2.503L 242.222,428.458 l 20.393-117.171l 153.724,0.00 
		c 4.207,0.00, 9.425,0.96, 14.444,2.507c 5.027,1.545, 9.851,3.678, 13.27,6.022l 60.496,41.531c 3.419,2.34, 5.13,5.433, 5.13,8.525
		C 509.679,372.969, 507.968,376.057, 504.548,378.401z" />
<glyph unicode="&#x0059;" d="M 141.60,4.675c-33.492,0.00-64.834,14.208-87.473,36.847C 10.268,85.382-1.958,161.944, 59.532,223.436
		c 36.027,36.027, 180.342,180.338, 252.38,252.384c 25.572,25.576, 58.128,35.446, 89.291,27.10
		c 30.606-8.199, 55.692-33.273, 63.891-63.88c 8.346-31.18-1.524-63.724-27.096-89.296L 196.644,108.386
		c-13.782-13.782-29.345-21.942-44.994-23.593c-15.494-1.631-30.288,3.363-40.636,13.711
		c-18.778,18.766-21.453,54.099, 9.759,85.303l 169.528,169.532c 6.965,6.965, 18.248,6.965, 25.213,0.00
		c 6.965-6.957, 6.965-18.252,0.00-25.213L 145.986,158.589c-14.655-14.646-15.999-28.633-9.759-34.873
		c 2.734-2.739, 6.886-3.972, 11.669-3.462c 7.343,0.775, 15.701,5.524, 23.534,13.341l 241.355,241.364
		c 16.557,16.561, 22.904,36.039, 17.862,54.848c-4.967,18.526-20.138,33.698-38.665,38.665c-18.805,5.042-38.287-1.305-54.856-17.866
		C 265.088,378.56, 120.773,234.241, 84.746,198.223c-47.024-47.024-35.76-101.124-5.404-131.491
		c 30.36-30.355, 84.456-41.618, 131.491,5.404l 252.38,252.384c 6.965,6.965, 18.248,6.965, 25.213,0.00
		c 6.965-6.961, 6.965-18.252,0.00-25.213L 236.046,46.923C 206.295,17.173, 173.003,4.675, 141.60,4.675z" />
<glyph unicode="&#x005a;" d="M 484.207,82.039c0.00,0.00-50.944,247.934-274.461,247.934l0.00,98.485 l-184.035-164.422l 184.035-170.439L 209.747,204.61 
		C 331.065,204.61, 420.944,193.853, 484.207,82.039z" />
<glyph unicode="&#x005b;" d="M 184.274,360.181L 184.274,428.458 L 0.238,264.036l 184.035-170.439L 184.274,164.36 l-107.619,99.675L 184.274,360.181z M 311.635,329.973
		l0.00,98.485 l-184.035-164.422l 184.035-170.439L 311.635,204.599 c 83.859,0.00, 134.783-10.746, 198.045-122.56
		C 509.679,82.039, 500.314,329.973, 311.635,329.973z" />
<glyph unicode="&#x005c;" d="M 300.172,204.61l0.00-111.002 l 184.035,170.427l-184.035,164.422l0.00-98.485 c-223.517,0.00-274.461-247.934-274.461-247.934
		C 88.973,193.853, 178.849,204.61, 300.172,204.61z" />
<glyph unicode="&#x005d;" d="M 200.436,135.167l-20.62-20.477c-17.878-17.718-46.948-17.731-64.815,0.00c-8.589,8.522-13.31,19.841-13.31,31.876
		c0.00,12.032, 4.72,23.359, 13.306,31.88l 75.907,75.309c 15.729,15.602, 45.329,38.57, 66.896,17.181
		c 9.898-9.831, 25.882-9.767, 35.709,0.127c 9.831,9.894, 9.771,25.886-0.127,35.705c-36.668,36.385-90.856,29.66-138.05-17.166
		L 79.421,214.285c-18.217-18.081-28.238-42.128-28.238-67.72s 10.022-49.635, 28.242-67.716
		c 18.742-18.599, 43.35-27.888, 67.975-27.888S 196.644,60.252, 215.397,78.862l 20.636,20.482c 9.894,9.818, 9.949,25.81, 0.119,35.705
		C 226.335,144.938, 210.336,144.994, 200.436,135.167z M 430.481,427.721c-39.383,39.076-94.442,41.197-130.898,5.027l-25.703-25.52
		c-9.902-9.822-9.962-25.806-0.131-35.705s 25.818-9.954, 35.716-0.127L 335.16,396.904c 18.885,18.749, 43.609,10.973, 59.74-5.027
		c 8.597-8.522, 13.321-19.848, 13.321-31.884c0.00-12.032-4.724-23.359-13.31-31.88L 313.923,247.774
		C 276.893,211.03, 259.52,228.28, 252.11,235.635c-9.902,9.822-25.882,9.759-35.713-0.131
		c-9.831-9.894-9.771-25.882, 0.131-35.705c 16.998-16.876, 36.405-25.241, 56.742-25.241c 24.903,0.00, 51.21,12.549, 76.23,37.381
		l 80.985,80.336c 18.212,18.085, 28.25,42.133, 28.25,67.724C 458.735,385.586, 448.697,409.632, 430.481,427.721z" />
<glyph unicode="&#x005e;" d="M 427.763,255.248c0.00,26.682, 16.425,47.74, 41.161,62.219c-4.454,14.893-10.36,29.157-17.624,42.586
		c-27.733-7.255-50.18,3.614-69.053,22.48c-18.87,18.873-24.645,41.325-17.385,69.061
		c-13.429,7.264-27.693,13.166-42.593,17.619c-14.475-24.739-40.624-41.161-67.31-41.161
		c-26.682,0.00-52.831,16.421-67.314,41.161c-14.893-4.446-29.157-10.356-42.586-17.619c 7.255-27.733, 1.485-50.184-17.389-69.061
		c-18.87-18.87-41.325-29.734-69.058-22.48c-7.264-13.429-13.17-27.693-17.619-42.586
		c 24.735-14.479, 41.158-35.538, 41.158-62.219c0.00-26.677-16.421-52.838-41.158-67.314c 4.449-14.897, 10.356-29.157, 17.619-42.586
		c 27.737,7.255, 50.188,1.485, 69.058-17.392c 18.865-18.865, 24.645-41.325, 17.389-69.053
		c 13.429-7.264, 27.693-13.174, 42.59-17.619c 14.483,24.731, 40.628,41.161, 67.31,41.158c 26.687,0.00, 52.834-16.425, 67.31-41.158
		c 14.901,4.449, 29.165,10.356, 42.598,17.624c-7.255,27.725-1.489,50.184, 17.38,69.048c 18.873,18.877, 41.325,29.743, 69.053,22.487
		c 7.264,13.429, 13.17,27.689, 17.624,42.586C 444.188,207.505, 427.763,228.57, 427.763,255.248z M 254.958,162.195
		c-51.39,0.00-93.048,41.658-93.048,93.052s 41.658,93.052, 93.048,93.052s 93.044-41.658, 93.044-93.052
		S 306.349,162.195, 254.958,162.195z" />
<glyph unicode="&#x005f;" d="M 38.446,344.40l 433.024,0.00 c 14.534,0.00, 12.147,15.486, 4.915,18.01c-7.235,2.528-87.699,32.934-101.709,32.934l-22.925,0.00 l0.00,76.416 l-193.587,0.00 l0.00-76.416 
		l-22.925,0.00 c-14.01,0.00-94.478-30.407-101.709-32.934C 26.295,359.886, 23.908,344.40, 38.446,344.40z M 476.566,316.381l-443.213,0.00 
		c-14.01,0.00-28.019-16.557-28.019-30.566l0.00-89.152 c0.00-14.01, 14.01-30.566, 28.019-30.566l 50.495,0.00 l-22.474-127.36l 387.174,0.00 l-22.48,127.36l 50.499,0.00 c 14.01,0.00, 28.019,16.557, 28.019,30.566l0.00,89.152 
		C 504.585,299.824, 490.575,316.381, 476.566,316.381z M 112.315,89.68l 35.661,165.568l 213.965,0.00 l 35.661-165.568L 112.315,89.68 z" />
<glyph unicode="&#x0060;" d="M 350.24,510.00c-87.923,0.00-159.20-71.276-159.20-159.20c0.00-9.963, 0.924-19.709, 2.675-29.165L0.00,127.92l0.00-95.52 c0.00-17.585, 14.255-31.84, 31.84-31.84
	l 31.84,0.00 l0.00,31.84 l 63.68,0.00 l0.00,63.68 l 63.68,0.00 l0.00,63.68 l 63.68,0.00 l 41.313,41.313C 312.953,194.946, 331.205,191.60, 350.24,191.60c 87.923,0.00, 159.20,71.276, 159.20,159.20S 438.163,510.00, 350.24,510.00z
	 M 397.937,350.737c-26.377,0.00-47.76,21.383-47.76,47.76s 21.383,47.76, 47.76,47.76s 47.76-21.383, 47.76-47.76S 424.315,350.737, 397.937,350.737z" />
<glyph unicode="&#x0061;" d="M 254.946,489.591c-129.409,0.00-234.33-104.928-234.33-234.342c0.00-129.426, 104.921-234.342, 234.33-234.342
			c 129.429,0.00, 234.355,104.916, 234.355,234.342C 489.302,384.661, 384.377,489.591, 254.946,489.591z M 254.946,71.85
			c-101.271,0.00-183.386,82.112-183.386,183.398c0.00,101.291, 82.116,183.398, 183.386,183.398c 101.303,0.00, 183.411-82.107, 183.411-183.398
			C 438.358,153.961, 356.25,71.85, 254.946,71.85zM 272.79,387.703L 237.116,387.703L 237.116,247.857L 323.861,161.129L 349.074,186.343L 272.79,262.635 		z" />
<glyph unicode="&#x0062;" d="M 497.226,64.693L 270.337,462.881c-3.129,5.485-9.007,8.88-15.386,8.88c-6.372,0.00-12.251-3.395-15.379-8.88
		L 12.70,64.693c-3.08-5.393-3.029-11.987, 0.14-17.333c 3.165-5.341, 8.963-8.625, 15.235-8.625l 453.768,0.00 
		c 6.257,0.00, 12.064,3.284, 15.235,8.625C 500.238,52.706, 500.289,59.30, 497.226,64.693z M 285.844,89.68L 224.066,89.68 l0.00,50.944 l 61.778,0.00 
		L 285.844,89.68 z M 285.844,178.84L 224.066,178.84 l0.00,152.832 l 61.778,0.00 L 285.844,178.84 z" />
<glyph unicode="&#x0063;" d="M 509.44,446.32l0.00-191.04 l -127.36,0.00 c0.00-70.207 57.089-127.36 127.36-127.36l0.00-63.68 c -105.343,0.00, -191.04,85.697, -191.04,191.04L 318.40,446.32 L 509.44,446.32 zM 191.04,446.32l0.00-191.04 l -127.36,0.00 c0.00-70.207 57.089-127.36 127.36-127.36l0.00-63.68 c -105.343,0.00, -191.04,85.697, -191.04,191.04L 0.00,446.32 L 191.04,446.32 z" />
<glyph unicode="&#x0064;" d="M 421.586,422.393c-36.763,36.763-64.345,31.243-64.345,31.243L 228.563,324.958l-147.069-147.065l-25.727-121.326
		l 121.315,25.735l 147.072,147.065l 128.681,128.673C 452.836,358.04, 458.36,385.625, 421.586,422.393z M 169.854,96.884
		l-41.348-8.904c-4.00,7.47-8.796,14.929-17.599,23.737c-8.803,8.799-16.27,13.592-23.733,17.603l 8.911,41.344
		l 11.947,11.961c0.00,0.00, 22.511-0.446, 47.916-25.866c 25.413-25.409, 25.869-47.923, 25.869-47.923L 169.854,96.884z" />
</font>
</defs>
</svg>
